<?xml version="1.0" ?><svg height="60px" version="1.1" viewBox="0 0 60 60" width="60px" xmlns="http://www.w3.org/2000/svg" xmlns:xlink="http://www.w3.org/1999/xlink"><title/><desc/><defs/><g fill="none" fill-rule="evenodd" id="Page-1" stroke="none" stroke-width="1"><g id="Social_icons" transform="translate(-722.000000, -954.000000)"><g id="Ethereum" transform="translate(722.000000, 954.000000)"><path d="M0,30 C0,13.4314567 13.4314567,0 30,0 C46.5685433,0 60,13.4314567 60,30 C60,46.5685433 46.5685433,60 30,60 C13.4314567,60 0,46.5685433 0,30 Z" fill="#FFFFFF" id="back"/><g fill-rule="nonzero" id="Shape" transform="translate(19.000000, 12.000000)"><polygon fill="#343434" points="11.0470014 0 10.8057065 0.820143885 10.8057065 24.6188201 11.0470014 24.8596835 22.0940806 18.3297842"/><polygon fill="#8C8C8C" points="11.0470791 0 0 18.3297842 11.0470791 24.8597698 11.0470791 13.3086043"/><polygon fill="#3C3C3B" points="11.0470014 26.9513612 10.9110302 27.1171165 10.9110302 35.5947281 11.0470014 35.9919367 22.1006417 20.4247424"/><polygon fill="#8C8C8C" points="11.0470791 35.9918158 11.0470791 26.9512403 0 20.4246216"/><polygon fill="#141414" points="11.0470014 24.8596576 22.0939079 18.3298446 11.0470014 13.3086647"/><polygon fill="#393939" points="7.76978417e-05 18.3298532 11.0469842 24.8596662 11.0469842 13.3086734"/></g></g></g></g></svg>